<svg xmlns="http://www.w3.org/2000/svg" width="24" height="24" viewBox="0 0 24 24" fill="none">
	<path fill-rule="evenodd" clip-rule="evenodd" d="M7.1605 6.19911C6.89502 5.93363 6.46459 5.93363 6.19911 6.19911C5.93363 6.46459 5.93363 6.89502 6.19911 7.1605L11.0386 12L6.19911 16.8395C5.93363 17.105 5.93363 17.5354 6.19911 17.8009C6.46459 18.0664 6.89502 18.0664 7.1605 17.8009L12 12.9614L16.8395 17.8009C17.105 18.0664 17.5354 18.0664 17.8009 17.8009C18.0664 17.5354 18.0664 17.105 17.8009 16.8395L12.9614 12L17.8009 7.1605C18.0664 6.89502 18.0664 6.46459 17.8009 6.19911C17.5354 5.93363 17.105 5.93363 16.8395 6.19911L12 11.0386L7.1605 6.19911Z" fill="#222222"/>
</svg>