<?xml version="1.0" encoding="iso-8859-1"?>
<!-- Uploaded to: SVG Repo, www.svgrepo.com, Generator: SVG Repo Mixer Tools -->
<!DOCTYPE svg PUBLIC "-//W3C//DTD SVG 1.1//EN" "http://www.w3.org/Graphics/SVG/1.1/DTD/svg11.dtd">
<svg fill="#000000" height="800px" width="800px" version="1.1" id="Capa_1" xmlns="http://www.w3.org/2000/svg" xmlns:xlink="http://www.w3.org/1999/xlink" 
	 viewBox="0 0 210.011 210.011" xml:space="preserve">
<path d="M198.012,53.322h-5.833h-37.834V37.183c0-4.397,2.43-8.377,6.341-10.387l33.776-17.348c2.456-1.261,3.425-4.275,2.164-6.732
	c-1.262-2.457-4.275-3.426-6.732-2.163l-33.777,17.348c-7.261,3.729-11.773,11.118-11.773,19.281v16.139h-37.834h-5.833
	c-2.761,0-5,2.238-5,5v7.346c0,2.762,2.239,5,5,5h1.514l3.494,62.622c-1.986-0.345-4.024-0.535-6.107-0.535H42.61
	c-19.636,0-35.611,15.975-35.611,35.61c0,4.004,2.646,7.402,6.28,8.537c-0.18,0.831-0.28,1.692-0.28,2.577
	c0,0.908,0.108,1.79,0.297,2.641c-3.652,1.211-6.297,4.653-6.297,8.707v10.008c0,5.059,4.116,9.176,9.176,9.176h98.521h11.318
	h57.979c2.653,0,4.844-2.072,4.992-4.722l7.512-134.622h1.514c2.761,0,5-2.238,5-5v-7.346
	C203.012,55.56,200.773,53.322,198.012,53.322z M42.61,142.754h56.97c13.768,0,25.033,10.919,25.589,24.552h-8.151H25.172h-8.151
	C17.578,153.673,28.843,142.754,42.61,142.754z M16.999,191.651h8.173h91.846h8.173v8.36H16.999V191.651z"/>
</svg>