<svg xmlns="http://www.w3.org/2000/svg" xmlns:xlink="http://www.w3.org/1999/xlink" version="1.1" x="0px" y="0px" viewBox="0 0 100 125" enable-background="new 0 0 100 100" xml:space="preserve"><g><path d="M73.361,95.021H29.135c-3.225,0-5.849-2.624-5.849-5.849V10.832c0-3.227,2.624-5.853,5.849-5.853h44.226   c3.227,0,5.853,2.625,5.853,5.853v78.341C79.213,92.398,76.588,95.021,73.361,95.021z M29.135,5.479   c-2.949,0-5.349,2.401-5.349,5.353v78.341c0,2.949,2.399,5.349,5.349,5.349h44.226c2.951,0,5.353-2.399,5.353-5.349V10.832   c0-2.951-2.401-5.353-5.353-5.353H29.135z M51.25,92.285c-3.032,0-5.498-2.468-5.498-5.501c0-3.033,2.466-5.501,5.498-5.501   c3.032,0,5.499,2.468,5.499,5.501C56.749,89.817,54.282,92.285,51.25,92.285z M51.25,81.782c-2.756,0-4.998,2.244-4.998,5.001   c0,2.758,2.242,5.001,4.998,5.001c2.756,0,4.999-2.244,4.999-5.001C56.249,84.026,54.006,81.782,51.25,81.782z M67.833,78.283   H34.667c-2.455,0-4.451-1.995-4.451-4.448V15.078c0-2.453,1.997-4.449,4.451-4.449h33.166c2.455,0,4.452,1.996,4.452,4.449   l-0.01,59.007C72.145,76.422,70.202,78.283,67.833,78.283z M34.667,11.129c-2.179,0-3.951,1.771-3.951,3.949v58.757   c0,2.177,1.772,3.948,3.951,3.948h33.166c2.178,0,3.949-1.771,3.949-3.948l0.003-58.757c0-2.178-1.773-3.949-3.952-3.949H34.667z"/></g><text x="0" y="115" fill="#000000" font-size="5px" font-weight="bold" font-family="'Helvetica Neue', Helvetica, Arial-Unicode, Arial, Sans-serif">Created by Universal Icons</text><text x="0" y="120" fill="#000000" font-size="5px" font-weight="bold" font-family="'Helvetica Neue', Helvetica, Arial-Unicode, Arial, Sans-serif">from the Noun Project</text></svg>